# xmcd CD database file
#
# Track frame offsets:
#	150
#	19401
#	34517
#	49122
#	68437
#	86031
#	111608
#	116015
#	135932
#	156231
#	180020
#	193907
#
# Disc length: 2851 seconds
#
# Revision: 0
# Processed by: cddbd v1.5PL3 Copyright (c) Steve Scherf et al.
# Submitted via: CDex 1.50beta10
#
DISCID=9b0b210c
DTITLE=山口百恵 - Disc16 二十才の記念碑 曼珠沙華
DYEAR=2003
DGENRE=JPop
TTITLE0=いい日旅立ち
TTITLE1=シュルード・フェロー
TTITLE2=惜春通り
TTITLE3=ジェラシー
TTITLE4=夢のあとさき
TTITLE5=曼珠沙華
TTITLE6=横須賀サンセット・サンライズ
TTITLE7=プリティー・ハーロット
TTITLE8=ひとふさの葡萄
TTITLE9=十五の頃 (紅梅集)
TTITLE10=ひといろ足りない虹のように
TTITLE11=横須賀サンセット・サンライズ
EXTD=YEAR: 2003
EXTT0=
EXTT1=
EXTT2=
EXTT3=
EXTT4=
EXTT5=
EXTT6=
EXTT7=
EXTT8=
EXTT9=
EXTT10=
EXTT11=
PLAYORDER=
